<?xml version="1.0" standalone="no"?>
<!DOCTYPE svg PUBLIC "-//W3C//DTD SVG 20010904//EN"
 "http://www.w3.org/TR/2001/REC-SVG-20010904/DTD/svg10.dtd">
<svg version="1.0" xmlns="http://www.w3.org/2000/svg"
 width="300.000000pt" height="117.000000pt" viewBox="0 0 300.000000 117.000000"
 preserveAspectRatio="xMidYMid meet">

<g transform="translate(0.000000,117.000000) scale(0.100000,-0.100000)"
fill="#000000" stroke="none">
<path d="M10 590 l0 -580 1490 0 1490 0 0 580 0 580 -1490 0 -1490 0 0 -580z
m1100 0 l0 -540 -530 0 -530 0 0 540 0 540 530 0 530 0 0 -540z m1354 317 c17
-13 17 -16 -8 -66 -15 -29 -32 -51 -39 -48 -19 6 -20 62 -2 96 17 35 23 37 49
18z m-145 -83 c12 -15 21 -33 21 -41 0 -31 -86 -179 -137 -234 -13 -14 -26
-43 -30 -65 l-5 -39 59 58 c41 40 64 72 73 100 13 44 47 117 55 117 10 0 55
-24 55 -30 0 -3 -4 -10 -9 -15 -12 -13 -71 -182 -71 -203 0 -22 12 -9 54 62
30 50 36 56 36 34 0 -30 -61 -153 -90 -182 -18 -18 -19 -18 -45 10 -22 24 -25
34 -20 64 l7 35 -58 -64 -58 -63 -23 26 c-25 29 -30 77 -14 134 9 28 8 33 -6
30 -10 -2 -25 -33 -43 -88 -31 -99 -59 -157 -89 -184 -21 -19 -22 -19 -52 10
-29 28 -31 32 -26 89 3 33 16 97 30 143 24 82 24 82 3 76 -24 -8 -36 -22 -36
-46 0 -26 -38 -120 -58 -144 -41 -49 -81 -48 -121 2 -18 23 -21 35 -15 73 16
111 81 221 129 221 21 0 67 -41 77 -69 1 -5 15 -7 30 -4 21 4 30 14 39 42 28
89 72 181 86 181 8 0 23 -5 34 -10 19 -11 19 -11 -1 -49 -18 -36 -70 -167 -70
-178 0 -2 10 2 22 8 18 10 24 8 34 -6 7 -10 15 -23 17 -28 8 -25 35 6 57 65
23 65 75 173 92 195 13 16 39 3 67 -33z m-596 -8 c45 -45 51 -71 24 -97 -23
-21 -116 -73 -122 -67 -2 2 16 30 41 62 24 33 41 63 36 68 -11 11 -109 -8
-145 -30 -44 -25 -71 -65 -63 -95 4 -18 26 -34 90 -66 46 -23 86 -47 89 -55
11 -27 -16 -99 -49 -131 -53 -53 -127 -51 -183 6 -45 44 -57 95 -36 144 l17
40 18 -59 c24 -76 62 -116 110 -116 76 0 83 55 13 103 -27 17 -65 49 -87 70
-37 36 -38 39 -32 84 13 99 99 170 208 172 30 1 44 -6 71 -33z m840 -150 c49
52 53 54 72 40 19 -14 18 -17 -48 -84 -59 -62 -67 -75 -67 -109 0 -21 4 -44 9
-52 12 -19 26 -8 82 69 42 57 64 68 39 18 -27 -54 -96 -149 -112 -154 -26 -8
-57 13 -71 48 l-13 31 -41 -46 c-22 -26 -43 -47 -46 -47 -13 0 9 50 45 101
l39 56 -7 74 c-7 79 -1 93 41 101 18 3 20 -3 23 -49 l3 -53 52 56z"/>
<path d="M482 910 c-85 -12 -182 -58 -213 -101 -31 -44 -39 -150 -15 -197 37
-72 94 -89 329 -102 183 -9 224 -19 233 -57 18 -72 -42 -112 -182 -121 -104
-6 -191 10 -272 51 -59 30 -65 31 -90 16 -42 -23 -43 -78 -3 -112 77 -64 258
-99 413 -79 105 13 205 55 237 101 28 40 40 101 30 156 -22 120 -108 159 -369
171 -152 7 -196 17 -205 45 -21 65 60 104 215 104 101 0 108 -1 183 -38 87
-43 111 -44 139 -6 73 98 -192 202 -430 169z"/>
<path d="M2265 755 c-33 -72 -56 -137 -52 -142 7 -7 89 177 84 189 -3 7 -17
-14 -32 -47z"/>
<path d="M1807 600 c-23 -60 -43 -158 -33 -167 11 -11 41 30 62 83 13 35 15
50 6 67 -6 12 -12 31 -14 42 -2 14 -8 7 -21 -25z"/>
<path d="M1986 493 c-14 -48 -29 -106 -31 -128 l-5 -40 30 60 c17 33 38 84 47
113 15 47 15 54 2 68 -14 13 -18 6 -43 -73z"/>
</g>
</svg>
